<svg width="27" height="22" viewBox="0 0 27 22" fill="none" xmlns="http://www.w3.org/2000/svg">
    <path d="M0.754883 2.60291V3.32291C0.754883 3.90291 0.954883 4.39291 1.35488 4.79291C1.75488 5.19291 2.23488 5.39291 2.79488 5.39291H24.9349C25.4949 5.39291 25.9749 5.19291 26.3749 4.79291C26.7749 4.39291 26.9749 3.90291 26.9749 3.32291V2.60291C26.9749 2.02291 26.7749 1.53291 26.3749 1.13291C25.9749 0.732906 25.4949 0.532906 24.9349 0.532906H2.79488C2.23488 0.532906 1.75488 0.732906 1.35488 1.13291C0.954883 1.53291 0.754883 2.02291 0.754883 2.60291ZM2.79488 13.3729H24.9349C25.4949 13.3729 25.9749 13.1729 26.3749 12.7729C26.7749 12.3729 26.9749 11.8829 26.9749 11.3029V10.5829C26.9749 10.0029 26.7749 9.51291 26.3749 9.11291C25.9749 8.71291 25.4949 8.51291 24.9349 8.51291H2.79488C2.23488 8.51291 1.75488 8.71291 1.35488 9.11291C0.954883 9.51291 0.754883 10.0029 0.754883 10.5829V11.3029C0.754883 11.8829 0.954883 12.3729 1.35488 12.7729C1.75488 13.1729 2.23488 13.3729 2.79488 13.3729ZM2.79488 21.3529H24.9349C25.5149 21.3529 25.9999 21.1529 26.3899 20.7529C26.7799 20.3529 26.9749 19.8729 26.9749 19.3129V18.5629C26.9749 17.9829 26.7799 17.4979 26.3899 17.1079C25.9999 16.7179 25.5149 16.5229 24.9349 16.5229H2.79488C2.23488 16.5229 1.75488 16.7179 1.35488 17.1079C0.954883 17.4979 0.754883 17.9829 0.754883 18.5629V19.3129C0.754883 19.8729 0.954883 20.3529 1.35488 20.7529C1.75488 21.1529 2.23488 21.3529 2.79488 21.3529Z" fill="white"/>
</svg>
