<svg width="16" height="13" viewBox="0 0 16 13" fill="none" xmlns="http://www.w3.org/2000/svg">
    <path d="M14.8438 11.5625V4.71875C14.7604 4.82292 14.6667 4.92188 14.5625 5.01562C14.4583 5.10938 14.3542 5.20833 14.25 5.3125C13.6042 5.79167 12.9635 6.28125 12.3281 6.78125C11.6927 7.28125 11.0625 7.79167 10.4375 8.3125C10.1042 8.60417 9.73438 8.88542 9.32812 9.15625C8.92188 9.42708 8.47917 9.5625 8 9.5625C7.52083 9.5625 7.07812 9.42708 6.67188 9.15625C6.26562 8.88542 5.89583 8.60417 5.5625 8.3125C4.9375 7.79167 4.30729 7.28125 3.67188 6.78125C3.03646 6.28125 2.39583 5.79167 1.75 5.3125C1.64583 5.20833 1.54167 5.10938 1.4375 5.01562C1.33333 4.92188 1.23958 4.82292 1.15625 4.71875V11.5625C1.15625 11.6458 1.18229 11.7135 1.23438 11.7656C1.28646 11.8177 1.35417 11.8438 1.4375 11.8438H14.5625C14.6458 11.8438 14.7135 11.8177 14.7656 11.7656C14.8177 11.7135 14.8438 11.6458 14.8438 11.5625ZM14.8438 2.1875C14.8438 2.08333 14.8385 1.95312 14.8281 1.79688C14.8177 1.64062 14.7292 1.5625 14.5625 1.5625H1.4375C1.35417 1.5625 1.28646 1.59375 1.23438 1.65625C1.18229 1.71875 1.15625 1.78125 1.15625 1.84375C1.15625 2.36458 1.27083 2.83854 1.5 3.26562C1.72917 3.69271 2.05208 4.07292 2.46875 4.40625C3.05208 4.86458 3.64583 5.32812 4.25 5.79688C4.85417 6.26562 5.44792 6.73958 6.03125 7.21875C6.26042 7.40625 6.56771 7.65625 6.95312 7.96875C7.33854 8.28125 7.6875 8.4375 8 8.4375C8.3125 8.4375 8.65625 8.28125 9.03125 7.96875C9.40625 7.65625 9.71875 7.40625 9.96875 7.21875C10.5521 6.73958 11.1458 6.26562 11.75 5.79688C12.3542 5.32812 12.9479 4.86458 13.5312 4.40625C13.8229 4.17708 14.1146 3.84375 14.4062 3.40625C14.6979 2.96875 14.8438 2.5625 14.8438 2.1875ZM16 1.84375V11.5625C16 11.9583 15.8594 12.2969 15.5781 12.5781C15.2969 12.8594 14.9583 13 14.5625 13H1.4375C1.04167 13 0.703125 12.8594 0.421875 12.5781C0.140625 12.2969 0 11.9583 0 11.5625V1.84375C0 1.46875 0.140625 1.14062 0.421875 0.859375C0.703125 0.578125 1.04167 0.4375 1.4375 0.4375H14.5625C14.9583 0.4375 15.2969 0.578125 15.5781 0.859375C15.8594 1.14062 16 1.46875 16 1.84375Z" fill="white"/>
</svg>
