<svg width="19" height="18" viewBox="0 0 19 18" fill="none" xmlns="http://www.w3.org/2000/svg">
    <path d="M17.5 0H8.51562C8.09896 0 7.74089 0.143229 7.44141 0.429688C7.14193 0.716146 6.99219 1.06771 6.99219 1.48438V4.49219C6.99219 4.6224 7.04427 4.73958 7.14844 4.84375C7.2526 4.94792 7.36979 5 7.5 5C7.63021 5 7.7474 4.94792 7.85156 4.84375C7.95573 4.73958 8.00781 4.6224 8.00781 4.49219V1.48438C8.00781 1.35417 8.05339 1.23698 8.14453 1.13281C8.23568 1.02865 8.35938 0.976562 8.51562 0.976562H16.0547L12.2266 2.65625C11.888 2.78646 11.6016 3.03385 11.3672 3.39844C11.1328 3.76302 11.0156 4.1276 11.0156 4.49219V13.9844H8.51562C8.35938 13.9844 8.23568 13.9388 8.14453 13.8477C8.05339 13.7565 8.00781 13.6328 8.00781 13.4766V10.5078C8.00781 10.3516 7.95573 10.2279 7.85156 10.1367C7.7474 10.0456 7.63021 10 7.5 10C7.36979 10 7.2526 10.0456 7.14844 10.1367C7.04427 10.2279 6.99219 10.3516 6.99219 10.5078V13.4766C6.99219 13.8932 7.14193 14.2513 7.44141 14.5508C7.74089 14.8503 8.09896 15 8.51562 15H11.0156V16.4844C11.0156 16.7188 11.0547 16.9206 11.1328 17.0898C11.2109 17.2591 11.3281 17.3958 11.4844 17.5C11.5885 17.5521 11.6862 17.5911 11.7773 17.6172C11.8685 17.6432 11.9661 17.6562 12.0703 17.6562C12.1745 17.6562 12.2721 17.6497 12.3633 17.6367C12.4544 17.6237 12.5391 17.5911 12.6172 17.5391L17.7734 15.3516C18.112 15.1953 18.3984 14.9414 18.6328 14.5898C18.8672 14.2383 18.9844 13.8672 18.9844 13.4766V1.48438C18.9844 1.06771 18.8411 0.716146 18.5547 0.429688C18.2682 0.143229 17.9167 0 17.5 0ZM18.0078 13.4766C18.0078 13.6589 17.9427 13.8477 17.8125 14.043C17.6823 14.2383 17.5391 14.362 17.3828 14.4141L12.2266 16.6406C12.1745 16.6667 12.1354 16.6797 12.1094 16.6797C12.0833 16.6797 12.0573 16.6797 12.0312 16.6797C12.0312 16.6536 12.0247 16.6276 12.0117 16.6016C11.9987 16.5755 11.9922 16.5365 11.9922 16.4844V4.49219C11.9922 4.3099 12.0573 4.1276 12.1875 3.94531C12.3177 3.76302 12.4609 3.63281 12.6172 3.55469L17.9297 1.28906C17.9557 1.3151 17.9753 1.34766 17.9883 1.38672C18.0013 1.42578 18.0078 1.45833 18.0078 1.48438V13.4766ZM8.35938 7.14844L5.35156 4.14062C5.2474 4.03646 5.13021 3.98438 5 3.98438C4.86979 3.98438 4.7526 4.03646 4.64844 4.14062C4.54427 4.24479 4.49219 4.36198 4.49219 4.49219C4.49219 4.6224 4.54427 4.73958 4.64844 4.84375L6.79688 6.99219H0.507812C0.351562 6.99219 0.227865 7.03776 0.136719 7.12891C0.0455729 7.22005 0 7.34375 0 7.5C0 7.63021 0.0455729 7.7474 0.136719 7.85156C0.227865 7.95573 0.351562 8.00781 0.507812 8.00781H6.79688L4.64844 10.1562C4.54427 10.2344 4.49219 10.3451 4.49219 10.4883C4.49219 10.6315 4.54427 10.7552 4.64844 10.8594C4.70052 10.9115 4.75911 10.944 4.82422 10.957C4.88932 10.9701 4.94792 10.9766 5 10.9766C5.05208 10.9766 5.11068 10.9701 5.17578 10.957C5.24089 10.944 5.29948 10.9115 5.35156 10.8594L8.35938 7.85156C8.46354 7.7474 8.51562 7.6237 8.51562 7.48047C8.51562 7.33724 8.46354 7.22656 8.35938 7.14844Z" fill="white"/>
</svg>
