<svg width="109" height="103" viewBox="0 0 109 103" fill="none" xmlns="http://www.w3.org/2000/svg">
    <path d="M76.7343 9.29028C71.8932 9.29028 67.9547 13.2288 67.9547 18.0699C67.9547 22.911 71.8932 26.8495 76.7343 26.8495C81.5749 26.8495 85.5134 22.911 85.5134 18.0699C85.5134 13.2288 81.5749 9.29028 76.7343 9.29028ZM76.7343 20.3739C75.4639 20.3739 74.4303 19.3403 74.4303 18.0699C74.4303 16.8 75.4639 15.7664 76.7343 15.7664C78.0042 15.7664 79.0378 16.8 79.0378 18.0699C79.0378 19.3403 78.0042 20.3739 76.7343 20.3739Z" fill="url(#paint0_linear_27_154)"/>
    <path d="M93.0332 24.9786C93.674 22.647 94.0019 20.3334 94.0019 18.0698C94.0019 8.54827 86.2553 0.802246 76.7338 0.802246C67.2122 0.802246 59.4662 8.54827 59.4662 18.0698C59.4662 20.3334 59.7941 22.647 60.4349 24.9786H0V102.198H109V24.9786H93.0332ZM87.9446 35.6695C88.0132 35.5678 88.083 35.4662 88.1506 35.365C88.2405 35.2304 88.3299 35.0947 88.4188 34.9579C88.464 34.8882 88.5098 34.8184 88.5545 34.7487C88.662 34.5827 88.7685 34.415 88.8744 34.2458C88.8877 34.2239 88.901 34.2027 88.9148 34.1808C89.4577 33.3085 89.983 32.4005 90.4737 31.4542H102.524V63.646L81.8639 42.986C82.8549 41.9934 84.0045 40.7608 85.193 39.3248C85.2265 39.2844 85.2595 39.245 85.2925 39.2045C85.3713 39.1087 85.4506 39.0119 85.5299 38.9139C85.598 38.8298 85.6661 38.7447 85.7348 38.659C85.7997 38.5776 85.8646 38.4967 85.9301 38.4136C86.0578 38.2518 86.1861 38.0884 86.3144 37.9224C86.3186 37.9171 86.3224 37.9112 86.3266 37.9059C86.3979 37.8133 86.4687 37.7175 86.5406 37.6238C86.63 37.5057 86.7199 37.3875 86.8078 37.2693C86.8615 37.197 86.9147 37.123 86.9685 37.0501C87.0707 36.9106 87.1729 36.7712 87.2735 36.6317C87.3341 36.5476 87.3937 36.4614 87.4544 36.3763C87.5438 36.2496 87.6338 36.1229 87.7216 35.9963C87.7961 35.8882 87.8706 35.7786 87.9446 35.6695ZM102.524 72.804V78.7569L74.1908 50.4228L77.1675 47.4466L102.524 72.804ZM76.7343 7.27785C82.6846 7.27785 87.5263 12.119 87.5263 18.0698C87.5263 21.1871 86.7056 24.1776 85.482 26.9085C85.1962 27.5466 84.888 28.1693 84.5634 28.7766C84.5293 28.8405 84.4952 28.9038 84.4606 28.9671C84.3302 29.2082 84.1966 29.4461 84.0609 29.6814C84.0274 29.7405 83.9939 29.8001 83.9598 29.8586C83.7964 30.1386 83.6304 30.4153 83.4616 30.6868C83.4255 30.7448 83.3887 30.8012 83.3525 30.8587C83.2221 31.0657 83.0912 31.2706 82.9582 31.4723C82.8911 31.5756 82.8224 31.6778 82.7543 31.7794C82.65 31.9348 82.5452 32.0887 82.4398 32.2409C82.3653 32.3484 82.2918 32.4559 82.2173 32.5618C82.0981 32.73 81.9789 32.895 81.8591 33.0589C81.7266 33.2409 81.5935 33.4192 81.4605 33.5959C81.3849 33.696 81.3093 33.7971 81.2337 33.8956C81.1278 34.0334 81.0219 34.1686 80.9165 34.3027C80.8553 34.3804 80.7941 34.4576 80.7329 34.5342C80.6196 34.6769 80.5051 34.819 80.3918 34.9579C80.3822 34.9696 80.3726 34.9808 80.363 34.993C80.0852 35.3315 79.81 35.6578 79.5386 35.9707C79.5237 35.9877 79.5088 36.0053 79.4939 36.0229C79.3624 36.174 79.2315 36.322 79.1022 36.4673C79.0788 36.4934 79.0559 36.5194 79.0325 36.5455C78.4779 37.164 77.9472 37.7249 77.4592 38.2199C77.4528 38.2263 77.4464 38.2327 77.4406 38.2391C77.1931 38.4892 76.9573 38.7234 76.7348 38.9395C74.8369 37.0964 71.9544 33.9749 69.6456 30.0896C69.6168 30.0417 69.5876 29.9949 69.5593 29.9464C69.4817 29.8139 69.4055 29.6787 69.3294 29.5446C69.2352 29.3786 69.141 29.2109 69.049 29.0422C68.9936 28.9411 68.9388 28.8399 68.8845 28.7383C68.7445 28.4738 68.6061 28.2077 68.472 27.9378C68.4635 27.9197 68.4539 27.9022 68.4449 27.8841C68.2873 27.5637 68.1346 27.239 67.9877 26.9106C66.763 24.1787 65.9418 21.1871 65.9418 18.0687C65.9418 12.119 70.7835 7.27785 76.7343 7.27785ZM62.9943 31.4542C63.4856 32.4 64.0104 33.3085 64.5538 34.1803C64.5671 34.2021 64.5804 34.2239 64.5942 34.2458C64.6996 34.415 64.806 34.5827 64.9135 34.7487C64.9583 34.8184 65.004 34.8882 65.0493 34.9579C65.1387 35.0941 65.2276 35.2304 65.3175 35.3645C65.3851 35.4662 65.4548 35.5678 65.5235 35.6695C65.598 35.7786 65.672 35.8882 65.7465 35.9957C65.8343 36.1229 65.9242 36.2496 66.0137 36.3763C66.0743 36.4614 66.1345 36.5476 66.1952 36.6317C66.2952 36.7712 66.3974 36.9106 66.4996 37.0495C66.5533 37.1225 66.6071 37.1964 66.6603 37.2688C66.7481 37.3875 66.8381 37.5051 66.9275 37.6233C66.9988 37.7175 67.0701 37.8128 67.1414 37.9059C67.1457 37.9112 67.15 37.9165 67.1542 37.9219C67.282 38.0884 67.4102 38.2518 67.538 38.4136C67.6029 38.4961 67.6684 38.5776 67.7333 38.659C67.8019 38.7441 67.8701 38.8293 67.9387 38.9134C68.0175 39.0108 68.0963 39.1087 68.1756 39.2045C68.2086 39.245 68.2421 39.2844 68.2751 39.3248C69.6418 40.9758 70.9575 42.3585 72.0395 43.4171L47.5278 67.9283L25.2089 45.6088L39.3635 31.4542H62.9943ZM30.206 31.4542L20.6302 41.0301L11.0543 31.4542H30.206ZM6.4756 95.7227V76.3396C16.4894 77.7665 24.4313 85.7084 25.8582 95.7227H6.4756ZM32.3849 95.7222C30.8851 82.1329 20.0649 71.3127 6.4756 69.8129V65.4731C22.4472 67.0054 35.193 79.7506 36.7247 95.7222H32.3849ZM43.2258 95.7222C41.6574 76.1772 26.0206 60.5404 6.4756 58.972V36.033L66.1643 95.7222H43.2258ZM102.524 95.7222H75.3223L52.1071 72.507L69.612 55.0021L102.524 87.9144V95.7222Z" fill="url(#paint1_linear_27_154)"/>
    <defs>
        <linearGradient id="paint0_linear_27_154" x1="67.9547" y1="26.8495" x2="89.1036" y2="16.9969" gradientUnits="userSpaceOnUse">
            <stop stop-color="#AE0EE9"/>
            <stop offset="1" stop-color="#2E19A7"/>
        </linearGradient>
        <linearGradient id="paint1_linear_27_154" x1="0" y1="102.198" x2="127.741" y2="38.2225" gradientUnits="userSpaceOnUse">
            <stop stop-color="#AE0EE9"/>
            <stop offset="1" stop-color="#2E19A7"/>
        </linearGradient>
    </defs>
</svg>
