<svg width="36" height="90" viewBox="0 0 36 90" fill="none" xmlns="http://www.w3.org/2000/svg">
    <path d="M0 2C0 0.89543 0.895431 0 2 0H36V90H2C0.895431 90 0 89.1046 0 88V2Z" fill="url(#paint0_linear_64_12)"/>
    <path d="M26.1724 46.9032C26.1724 47.0425 26.1379 47.1644 26.069 47.2689C26 47.3734 25.931 47.4605 25.8621 47.5301L12.1034 61.5313C12.0345 61.6009 11.931 61.6532 11.7931 61.688C11.6552 61.7228 11.5172 61.7402 11.3793 61.7402C11.3103 61.7402 11.2069 61.7228 11.069 61.688C10.931 61.6532 10.8276 61.6009 10.7586 61.5313L9.31034 59.964C9.17241 59.8943 9.08621 59.8072 9.05172 59.7028C9.01724 59.5983 9 59.4764 9 59.3371C9 59.1977 9.01724 59.0584 9.05172 58.9191C9.08621 58.7798 9.17241 58.6753 9.31034 58.6057L20.8966 46.9032L9.31034 35.2008C9.17241 35.0615 9.08621 34.9396 9.05172 34.8351C9.01724 34.7306 9 34.6087 9 34.4694C9 34.3301 9.01724 34.2082 9.05172 34.1037C9.08621 33.9992 9.17241 33.8773 9.31034 33.738L10.7586 32.2752C10.8276 32.2055 10.931 32.1359 11.069 32.0662C11.2069 31.9966 11.3103 31.9617 11.3793 31.9617C11.5172 31.9617 11.6552 31.9966 11.7931 32.0662C11.931 32.1359 12.0345 32.2055 12.1034 32.2752L25.8621 46.1718C25.931 46.3111 26 46.433 26.069 46.5375C26.1379 46.642 26.1724 46.7639 26.1724 46.9032Z" fill="white"/>
    <defs>
        <linearGradient id="paint0_linear_64_12" x1="0" y1="90" x2="51.0006" y2="80.4959" gradientUnits="userSpaceOnUse">
            <stop stop-color="#AE0EE9"/>
            <stop offset="1" stop-color="#2E19A7"/>
        </linearGradient>
    </defs>
</svg>
