<svg width="98" height="94" viewBox="0 0 98 94" fill="none" xmlns="http://www.w3.org/2000/svg">
    <path d="M16 0.800049V36H0.587097L0.922253 93.2001H31.5031H35.9031H66.6H97.4V9.60005H62.2V11.8V53.6001H51.1914V0.817236L16 0.800049ZM20.4 5.20005L46.7914 5.21724V53.6001H35.8301L35.7957 36H33.6H20.4V5.20005ZM27 9.60005V14H31.4V9.60005H27ZM35.8859 9.60005V14H40.2V9.60005H35.8859ZM66.6 14H93V88.8H81.9141V80.0001H77.6V88.8H66.6V53.6001V14ZM27 18.4V22.8H31.4V18.4H27ZM35.8 18.4V22.8H40.2V18.4H35.8ZM73.2 18.4086V22.8H77.6V18.4086H73.2ZM82.043 18.4172V22.8473H86.357V18.4172H82.043ZM73.2 27.2344V31.6H77.6V27.2344H73.2ZM82.043 27.2344V31.6H86.357V27.2344H82.043ZM73.2 36V40.4001H77.6V36H73.2ZM82 36V40.4001H86.357V36H82ZM5.01288 40.4001H31.4043L31.4301 53.6001H31.3957L31.4902 88.8H20.357V80.0001H16.043V88.8H5.29647L5.01288 40.4001ZM11.6 44.8V49.2344H16.0859V44.8H11.6ZM20.4859 44.8V49.2344H24.8V44.8H20.4859ZM73.2 44.8172V49.1958H77.6V44.8172H73.2ZM82 44.8172V49.1958H86.357V44.8172H82ZM11.6 53.5657V58H16.0859V53.5657H11.6ZM20.4859 53.5657V58H24.8V53.5657H20.4859ZM73.2 53.5829V58.0172H77.6V53.5829H73.2ZM82.043 53.5829V58.0172H86.357V53.5829H82.043ZM35.8387 58H62.2V88.8H51.2V80.0001H46.8V88.8H35.8945L35.8387 58ZM11.6 62.4001V66.8344H16.0859V62.4001H11.6ZM20.4859 62.4001V66.8344H24.8V62.4001H20.4859ZM42.4 62.4001V66.8344H46.8V62.4001H42.4ZM51.2 62.4001V66.8344H55.6V62.4001H51.2ZM73.2 62.4001V66.8344H77.6V62.4001H73.2ZM82.043 62.4001V66.8344H86.357V62.4001H82.043ZM42.4 71.1657V75.6001H46.8V71.1657H42.4ZM51.2 71.1657V75.6001H55.6V71.1657H51.2ZM73.2 71.1657V75.6001H77.6V71.1657H73.2ZM82.043 71.1657V75.6001H86.357V71.1657H82.043Z" fill="url(#paint0_linear_27_158)"/>
    <defs>
        <linearGradient id="paint0_linear_27_158" x1="0.587097" y1="93.2001" x2="115.195" y2="37.2563" gradientUnits="userSpaceOnUse">
            <stop stop-color="#AE0EE9"/>
            <stop offset="1" stop-color="#2E19A7"/>
        </linearGradient>
    </defs>
</svg>
