<svg width="30" height="30" viewBox="0 0 30 30" fill="none" xmlns="http://www.w3.org/2000/svg">
    <g clip-path="url(#clip0_1_1189)">
        <path d="M22.264 12.176C21.8253 12.372 21.34 12.5073 20.808 12.582C21.0693 12.4326 21.2957 12.2366 21.487 11.994C21.6783 11.7513 21.8207 11.4806 21.914 11.182C21.438 11.4806 20.906 11.686 20.318 11.798C20.094 11.546 19.821 11.35 19.499 11.21C19.177 11.07 18.8387 11 18.484 11C18.0267 11 17.6067 11.1143 17.224 11.343C16.8413 11.5716 16.538 11.8773 16.314 12.26C16.09 12.6426 15.978 13.0626 15.978 13.52C15.978 13.744 15.9967 13.9353 16.034 14.094C15.0073 14.038 14.0413 13.7766 13.136 13.31C12.2493 12.8526 11.4887 12.2366 10.854 11.462C10.63 11.8633 10.518 12.281 10.518 12.715C10.518 13.149 10.6183 13.5503 10.819 13.919C11.0197 14.2876 11.2927 14.5886 11.638 14.822C11.2273 14.8126 10.8493 14.7053 10.504 14.5V14.542C10.504 15.1486 10.693 15.6806 11.071 16.138C11.449 16.5953 11.932 16.8846 12.52 17.006C12.3147 17.062 12.0907 17.09 11.848 17.09C11.68 17.09 11.526 17.076 11.386 17.048C11.5447 17.552 11.8387 17.965 12.268 18.287C12.6973 18.609 13.1827 18.7746 13.724 18.784C13.2947 19.1293 12.8117 19.3953 12.275 19.582C11.7383 19.7686 11.1807 19.862 10.602 19.862C10.4807 19.862 10.294 19.8526 10.042 19.834H10C11.1667 20.5806 12.4547 20.954 13.864 20.954C14.9747 20.954 15.9967 20.7393 16.93 20.31C17.7887 19.9086 18.5353 19.3486 19.17 18.63C19.758 17.958 20.2153 17.1926 20.542 16.334C20.85 15.5033 21.004 14.6633 21.004 13.814V13.478C21.4987 13.1233 21.9187 12.6893 22.264 12.176Z" fill="white"/>
    </g>
    <rect x="0.5" y="0.5" width="29" height="29" rx="14.5" stroke="white"/>
    <defs>
        <clipPath id="clip0_1_1189">
            <rect width="14" height="15.2" fill="white" transform="matrix(1 0 0 -1 8 23.4)"/>
        </clipPath>
    </defs>
</svg>
