<svg width="83" height="112" viewBox="0 0 83 112" fill="none" xmlns="http://www.w3.org/2000/svg">
    <path d="M81 47.1422C81 65.8401 65.8401 81 47.1422 81C28.4444 81 13.2844 65.8401 13.2844 47.1422C13.2844 28.4444 28.4444 13.2844 47.1422 13.2844C65.8401 13.2844 81 28.4444 81 47.1422Z" stroke="url(#paint0_linear_27_129)" stroke-width="3.8086" stroke-linecap="round" stroke-linejoin="round"/>
    <path d="M47.1422 13.2844C37.5187 20.3017 31.1046 32.8375 31.1046 47.1377C31.1046 61.4379 37.5187 73.9827 47.1557 81C56.7882 73.9827 63.2024 61.4469 63.2024 47.1377C63.2024 32.833 56.7792 20.3017 47.1422 13.2844Z" stroke="url(#paint1_linear_27_129)" stroke-width="3.8086" stroke-linecap="round" stroke-linejoin="round"/>
    <path d="M47.1422 110.028V92.2844C22.2102 92.2844 2 72.0742 2 47.1422C2 22.2102 22.2102 2 47.1422 2V13.2844" stroke="url(#paint2_linear_27_129)" stroke-width="3.8086" stroke-linecap="round" stroke-linejoin="round"/>
    <path d="M61.2533 110.028H33.0355" stroke="url(#paint3_linear_27_129)" stroke-width="3.8086" stroke-linecap="round" stroke-linejoin="round"/>
    <path d="M81 47.1421H13.2889" stroke="url(#paint4_linear_27_129)" stroke-width="3.8086" stroke-linecap="round" stroke-linejoin="round"/>
    <defs>
        <linearGradient id="paint0_linear_27_129" x1="13.2844" y1="81" x2="94.8451" y2="43.0025" gradientUnits="userSpaceOnUse">
            <stop stop-color="#AE0EE9"/>
            <stop offset="1" stop-color="#2E19A7"/>
        </linearGradient>
        <linearGradient id="paint1_linear_27_129" x1="31.1046" y1="81" x2="75.9683" y2="71.0927" gradientUnits="userSpaceOnUse">
            <stop stop-color="#AE0EE9"/>
            <stop offset="1" stop-color="#2E19A7"/>
        </linearGradient>
        <linearGradient id="paint2_linear_27_129" x1="2" y1="110.028" x2="65.7567" y2="97.6159" gradientUnits="userSpaceOnUse">
            <stop stop-color="#AE0EE9"/>
            <stop offset="1" stop-color="#2E19A7"/>
        </linearGradient>
        <linearGradient id="paint3_linear_27_129" x1="33.0355" y1="111.028" x2="33.2735" y2="107.899" gradientUnits="userSpaceOnUse">
            <stop stop-color="#AE0EE9"/>
            <stop offset="1" stop-color="#2E19A7"/>
        </linearGradient>
        <linearGradient id="paint4_linear_27_129" x1="13.2889" y1="48.1421" x2="13.3886" y2="44.9988" gradientUnits="userSpaceOnUse">
            <stop stop-color="#AE0EE9"/>
            <stop offset="1" stop-color="#2E19A7"/>
        </linearGradient>
    </defs>
</svg>
