<svg width="31" height="30" viewBox="0 0 31 30" fill="none" xmlns="http://www.w3.org/2000/svg">
    <g clip-path="url(#clip0_1_1186)">
        <path d="M20.284 8.46793H9.91C9.658 8.46793 9.44333 8.55427 9.266 8.72693C9.08867 8.8996 9 9.10727 9 9.34993V19.8499C9 20.0926 9.08867 20.3003 9.266 20.4729C9.44333 20.6456 9.658 20.7319 9.91 20.7319H20.284C20.5267 20.7319 20.7367 20.6456 20.914 20.4729C21.0913 20.3003 21.18 20.0926 21.18 19.8499V9.34993C21.18 9.10727 21.0913 8.8996 20.914 8.72693C20.7367 8.55427 20.5267 8.46793 20.284 8.46793ZM12.696 18.7299H10.862V13.1999H12.696V18.7299ZM11.772 12.4439H11.758C11.4593 12.4439 11.2167 12.3529 11.03 12.1709C10.8433 11.9889 10.75 11.7603 10.75 11.4849C10.75 11.2096 10.8457 10.9809 11.037 10.7989C11.2283 10.6169 11.478 10.5259 11.786 10.5259C12.094 10.5259 12.3413 10.6169 12.528 10.7989C12.7147 10.9809 12.808 11.2096 12.808 11.4849C12.808 11.7603 12.7147 11.9889 12.528 12.1709C12.3413 12.3529 12.0893 12.4439 11.772 12.4439ZM19.318 18.7299H17.484V15.7619C17.484 15.3699 17.414 15.0713 17.274 14.8659C17.1153 14.6326 16.8773 14.5159 16.56 14.5159C16.3267 14.5159 16.1213 14.5859 15.944 14.7259C15.804 14.8473 15.692 15.0013 15.608 15.1879C15.5707 15.2999 15.552 15.4493 15.552 15.6359V18.7299H13.718V16.1539C13.7273 14.3993 13.7273 13.4146 13.718 13.1999H15.552V13.9839C15.9347 13.3773 16.4853 13.0739 17.204 13.0739C17.8387 13.0739 18.3427 13.2746 18.716 13.6759C19.1173 14.1146 19.318 14.7399 19.318 15.5519V18.7299Z" fill="white"/>
    </g>
    <rect x="1.22998" y="0.5" width="29" height="29" rx="14.5" stroke="white"/>
    <defs>
        <clipPath id="clip0_1_1186">
            <rect width="14" height="15.2" fill="white" transform="matrix(1 0 0 -1 9 22.2)"/>
        </clipPath>
    </defs>
</svg>
