<svg width="79" height="60" viewBox="0 0 79 60" fill="none" xmlns="http://www.w3.org/2000/svg">
    <path d="M74.0625 11.25H60C58.2031 11.25 57.1289 10.6641 56.7773 9.49219C56.4258 8.32031 56.25 7.65625 56.25 7.5V5.625C56.25 4.45312 55.6055 3.22266 54.3164 1.93359C53.0273 0.644531 51.1719 0 48.75 0H30C27.2656 0 25.332 0.664062 24.1992 1.99219C23.0664 3.32031 22.5 4.53125 22.5 5.625V7.5C22.5 7.57812 22.3438 8.22266 22.0312 9.43359C21.7188 10.6445 20.625 11.25 18.75 11.25H4.6875C3.35938 11.25 2.24609 11.6992 1.34766 12.5977C0.449219 13.4961 0 14.6094 0 15.9375V49.6875C0 51.0156 0.449219 52.1289 1.34766 53.0273C2.24609 53.9258 3.35938 54.375 4.6875 54.375H15.9375C16.1719 54.375 16.3867 54.2773 16.582 54.082C16.7773 53.8867 16.875 53.6719 16.875 53.4375C16.875 53.2031 16.7773 52.9883 16.582 52.793C16.3867 52.5977 16.1719 52.5 15.9375 52.5H4.6875C3.90625 52.5 3.24219 52.2266 2.69531 51.6797C2.14844 51.1328 1.875 50.4688 1.875 49.6875V26.25H16.875C16.25 27.6562 15.7812 29.1602 15.4688 30.7617C15.1562 32.3633 15 33.9844 15 35.625C15 38.9844 15.625 42.1484 16.875 45.1172C18.2031 48.0859 19.9609 50.6641 22.1484 52.8516C24.3359 55.0391 26.9141 56.7969 29.8828 58.125C32.8516 59.375 36.0156 60 39.375 60C42.7344 60 45.8984 59.375 48.8672 58.125C51.8359 56.7969 54.4141 55.0391 56.6016 52.8516C58.7891 50.6641 60.5469 48.0859 61.875 45.1172C63.125 42.1484 63.75 38.9844 63.75 35.625C63.75 33.9844 63.5938 32.3633 63.2812 30.7617C62.9688 29.1602 62.5 27.6562 61.875 26.25H76.875V49.6875C76.875 50.4688 76.6016 51.1328 76.0547 51.6797C75.5078 52.2266 74.8438 52.5 74.0625 52.5H60.9375C60.7031 52.5 60.4883 52.5977 60.293 52.793C60.0977 52.9883 60 53.2031 60 53.4375C60 53.6719 60.0977 53.8867 60.293 54.082C60.4883 54.2773 60.7031 54.375 60.9375 54.375H74.0625C75.3906 54.375 76.5039 53.9258 77.4023 53.0273C78.3008 52.1289 78.75 51.0156 78.75 49.6875V15.9375C78.75 14.6094 78.3008 13.4961 77.4023 12.5977C76.5039 11.6992 75.3906 11.25 74.0625 11.25ZM39.375 58.125C33.2031 58.125 27.9102 55.918 23.4961 51.5039C19.082 47.0898 16.875 41.7969 16.875 35.625C16.875 29.4531 19.082 24.1602 23.4961 19.7461C27.9102 15.332 33.2031 13.125 39.375 13.125C45.5469 13.125 50.8398 15.332 55.2539 19.7461C59.668 24.1602 61.875 29.4531 61.875 35.625C61.875 41.7969 59.668 47.0898 55.2539 51.5039C50.8398 55.918 45.5469 58.125 39.375 58.125ZM61.4062 24.375C61.3281 24.375 61.25 24.375 61.1719 24.375C61.0938 24.375 61.0547 24.4141 61.0547 24.4922C59.0234 20.5859 56.0742 17.4023 52.207 14.9414C48.3398 12.4805 44.0625 11.25 39.375 11.25C34.6875 11.25 30.4102 12.4805 26.543 14.9414C22.6758 17.4023 19.7266 20.5859 17.6953 24.4922C17.6953 24.4141 17.6562 24.375 17.5781 24.375C17.5 24.375 17.4219 24.375 17.3438 24.375H1.875V15.9375C1.875 15.1562 2.14844 14.4922 2.69531 13.9453C3.24219 13.3984 3.90625 13.125 4.6875 13.125H18.75C20.9375 13.125 22.4219 12.4414 23.2031 11.0742C23.9844 9.70703 24.375 8.51562 24.375 7.5V5.625C24.375 4.84375 24.8047 4.02344 25.6641 3.16406C26.5234 2.30469 27.9688 1.875 30 1.875H48.75C50.7031 1.875 52.1289 2.34375 53.0273 3.28125C53.9258 4.21875 54.375 5 54.375 5.625V7.5C54.375 8.4375 54.7656 9.60938 55.5469 11.0156C56.3281 12.4219 57.8125 13.125 60 13.125H74.0625C74.8438 13.125 75.5078 13.3984 76.0547 13.9453C76.6016 14.4922 76.875 15.1562 76.875 15.9375V24.375H61.4062ZM17.8125 9.375C18.0469 9.375 18.2617 9.27734 18.457 9.08203C18.6523 8.88672 18.75 8.67188 18.75 8.4375V6.5625C18.75 5.78125 18.4766 5.11719 17.9297 4.57031C17.3828 4.02344 16.7188 3.75 15.9375 3.75H8.4375C7.65625 3.75 6.99219 4.02344 6.44531 4.57031C5.89844 5.11719 5.625 5.78125 5.625 6.5625V8.4375C5.625 8.67188 5.72266 8.88672 5.91797 9.08203C6.11328 9.27734 6.32812 9.375 6.5625 9.375C6.79688 9.375 7.01172 9.27734 7.20703 9.08203C7.40234 8.88672 7.5 8.67188 7.5 8.4375V6.5625C7.5 6.32812 7.59766 6.11328 7.79297 5.91797C7.98828 5.72266 8.20312 5.625 8.4375 5.625H15.9375C16.1719 5.625 16.3867 5.72266 16.582 5.91797C16.7773 6.11328 16.875 6.32812 16.875 6.5625V8.4375C16.875 8.67188 16.9727 8.88672 17.168 9.08203C17.3633 9.27734 17.5781 9.375 17.8125 9.375ZM39.375 18.75C34.6875 18.75 30.7031 20.3906 27.4219 23.6719C24.1406 26.9531 22.5 30.9375 22.5 35.625C22.5 40.3125 24.1406 44.2969 27.4219 47.5781C30.7031 50.8594 34.6875 52.5 39.375 52.5C44.0625 52.5 48.0469 50.8594 51.3281 47.5781C54.6094 44.2969 56.25 40.3125 56.25 35.625C56.25 30.9375 54.6094 26.9531 51.3281 23.6719C48.0469 20.3906 44.0625 18.75 39.375 18.75ZM39.375 50.625C35.2344 50.625 31.6992 49.1602 28.7695 46.2305C25.8398 43.3008 24.375 39.7656 24.375 35.625C24.375 31.4844 25.8398 27.9492 28.7695 25.0195C31.6992 22.0898 35.2344 20.625 39.375 20.625C43.5156 20.625 47.0508 22.0898 49.9805 25.0195C52.9102 27.9492 54.375 31.4844 54.375 35.625C54.375 39.7656 52.9102 43.3008 49.9805 46.2305C47.0508 49.1602 43.5156 50.625 39.375 50.625Z" fill="url(#paint0_linear_6_1319)"/>
    <defs>
        <linearGradient id="paint0_linear_6_1319" x1="0" y1="0" x2="84.0226" y2="51.3772" gradientUnits="userSpaceOnUse">
            <stop stop-color="#AE0EE9"/>
            <stop offset="1" stop-color="#2E19A7"/>
        </linearGradient>
    </defs>
</svg>
