<svg width="64" height="61" viewBox="0 0 64 61" fill="none" xmlns="http://www.w3.org/2000/svg">
    <path d="M48.1275 2.51514C48.3619 2.51514 48.5767 2.41748 48.772 2.22217C48.9673 2.02686 49.065 1.81201 49.065 1.57764C49.065 1.34326 48.9673 1.12842 48.772 0.933105C48.5767 0.737793 48.3619 0.640137 48.1275 0.640137H16.2525C16.0181 0.640137 15.8033 0.737793 15.608 0.933105C15.4127 1.12842 15.315 1.34326 15.315 1.57764C15.315 1.81201 15.4127 2.02686 15.608 2.22217C15.8033 2.41748 16.0181 2.51514 16.2525 2.51514H48.1275ZM48.1275 4.39014H12.5025C9.45563 4.39014 7.13141 4.83936 5.52985 5.73779C3.92828 6.63623 2.815 7.51514 2.19 8.37451C1.33063 9.54639 0.842346 10.855 0.725159 12.3003C0.607971 13.7456 0.783752 15.2886 1.2525 16.9292C2.11188 19.3511 3.67438 21.8706 5.94 24.4878C8.20563 27.105 10.1978 29.0776 11.9166 30.4058C11.9947 30.4839 12.0923 30.5425 12.2095 30.5815C12.3267 30.6206 12.4244 30.6401 12.5025 30.6401C12.6588 30.6401 12.7955 30.6011 12.9127 30.5229C13.0298 30.4448 13.1275 30.3667 13.2056 30.2886C13.3619 30.0542 13.44 29.8198 13.44 29.5854C13.44 29.3511 13.3228 29.1558 13.0884 28.9995C11.5259 27.7495 9.65094 25.894 7.46344 23.4331C5.27594 20.9722 3.83063 18.5698 3.1275 16.2261C2.65875 14.9761 2.48297 13.7651 2.60016 12.5933C2.71735 11.4214 3.08844 10.4058 3.71344 9.54639C4.41656 8.45264 5.52985 7.63232 7.05328 7.08545C8.57672 6.53857 10.3931 6.26514 12.5025 6.26514H15.315V24.0776C15.315 30.4058 17.5025 35.3472 21.8775 38.9019C26.2525 42.4565 29.1041 44.5854 30.4322 45.2886C30.3541 45.3667 30.315 45.4253 30.315 45.4644C30.315 45.5034 30.315 45.562 30.315 45.6401V50.3276C30.315 50.562 30.4127 50.7769 30.608 50.9722C30.8033 51.1675 31.0181 51.2651 31.2525 51.2651C31.4869 51.2651 31.7017 51.1675 31.897 50.9722C32.0923 50.7769 32.19 50.562 32.19 50.3276V45.6401C32.19 45.562 32.19 45.5034 32.19 45.4644C32.19 45.4253 32.1509 45.3667 32.0728 45.2886C33.5572 44.6636 36.7603 42.5542 41.6822 38.9604C46.6041 35.3667 49.065 30.4058 49.065 24.0776V6.26514H51.8775C53.9869 6.26514 55.8033 6.53857 57.3267 7.08545C58.8502 7.63232 59.9634 8.45264 60.6666 9.54639C61.2916 10.4058 61.6627 11.4214 61.7798 12.5933C61.897 13.7651 61.7213 14.9761 61.2525 16.2261C60.7056 18.0229 59.2798 20.3081 56.9752 23.0815C54.6705 25.855 52.7759 27.8276 51.2916 28.9995C51.0572 29.1558 50.94 29.3511 50.94 29.5854C50.94 29.8198 51.0181 30.0542 51.1744 30.2886C51.2525 30.3667 51.3502 30.4448 51.4673 30.5229C51.5845 30.6011 51.7213 30.6401 51.8775 30.6401C51.9556 30.6401 52.0533 30.6206 52.1705 30.5815C52.2877 30.5425 52.3853 30.4839 52.4634 30.4058C54.1041 29.1558 56.1158 27.0854 58.4986 24.1948C60.8814 21.3042 62.4244 18.8823 63.1275 16.9292C63.5963 15.2886 63.772 13.7456 63.6548 12.3003C63.5377 10.855 63.0494 9.54639 62.19 8.37451C61.565 7.51514 60.4517 6.63623 58.8502 5.73779C57.2486 4.83936 54.9244 4.39014 51.8775 4.39014H48.1275ZM47.19 24.0776C47.19 29.7808 44.8463 34.312 40.1588 37.6714C35.4713 41.0308 32.5025 43.0229 31.2525 43.6479C30.0806 43.0229 27.4439 41.0308 23.3423 37.6714C19.2408 34.312 17.19 29.7808 17.19 24.0776V6.26514H47.19V24.0776ZM20.94 53.1401C19.8463 53.1401 18.9478 53.4917 18.2447 54.1948C17.5416 54.8979 17.19 55.7964 17.19 56.8901V59.7026C17.19 59.937 17.2877 60.1519 17.483 60.3472C17.6783 60.5425 17.8931 60.6401 18.1275 60.6401H44.3775C44.6119 60.6401 44.8267 60.5425 45.022 60.3472C45.2173 60.1519 45.315 59.937 45.315 59.7026V57.0073C45.315 55.9136 44.9439 54.9956 44.2017 54.2534C43.4595 53.5112 42.5806 53.1401 41.565 53.1401H20.94ZM43.44 57.0073V58.7651H19.065V56.8901C19.065 56.3433 19.2408 55.894 19.5923 55.5425C19.9439 55.1909 20.3931 55.0151 20.94 55.0151H41.565C42.1119 55.0151 42.5611 55.2104 42.9127 55.6011C43.2642 55.9917 43.44 56.4604 43.44 57.0073Z" fill="url(#paint0_linear_6_1341)"/>
    <defs>
        <linearGradient id="paint0_linear_6_1341" x1="0.690002" y1="0.640137" x2="75.2088" y2="37.0928" gradientUnits="userSpaceOnUse">
            <stop stop-color="#AE0EE9"/>
            <stop offset="1" stop-color="#2E19A7"/>
        </linearGradient>
    </defs>
</svg>
