<svg width="79" height="60" viewBox="0 0 79 60" fill="none" xmlns="http://www.w3.org/2000/svg">
    <path d="M74.0625 26.25H4.6875C4.53125 26.25 4.39453 26.2891 4.27734 26.3672C4.16016 26.4453 4.0625 26.5234 3.98438 26.6016C3.90625 26.7578 3.84766 26.8945 3.80859 27.0117C3.76953 27.1289 3.75 27.2656 3.75 27.4219L11.25 57.4219C11.3281 57.7344 11.5625 58.2422 11.9531 58.9453C12.3438 59.6484 13.0469 60 14.0625 60H64.6875C65.7031 60 66.4062 59.6484 66.7969 58.9453C67.1875 58.2422 67.4219 57.7344 67.5 57.4219L75 27.4219C75 27.2656 74.9805 27.1289 74.9414 27.0117C74.9023 26.8945 74.8438 26.7578 74.7656 26.6016C74.6875 26.5234 74.5898 26.4453 74.4727 26.3672C74.3555 26.2891 74.2188 26.25 74.0625 26.25ZM65.625 56.9531C65.4688 57.5 65.3125 57.832 65.1562 57.9492C65 58.0664 64.8438 58.125 64.6875 58.125H14.0625C13.9062 58.125 13.75 58.0859 13.5938 58.0078C13.4375 57.9297 13.2812 57.5781 13.125 56.9531L5.85938 28.125H72.8906L65.625 56.9531ZM34.6875 52.5C34.9219 52.5 35.1367 52.4023 35.332 52.207C35.5273 52.0117 35.625 51.7969 35.625 51.5625V34.6875C35.625 34.4531 35.5273 34.2383 35.332 34.043C35.1367 33.8477 34.9219 33.75 34.6875 33.75C34.4531 33.75 34.2383 33.8477 34.043 34.043C33.8477 34.2383 33.75 34.4531 33.75 34.6875V51.5625C33.75 51.7969 33.8477 52.0117 34.043 52.207C34.2383 52.4023 34.4531 52.5 34.6875 52.5ZM21.5625 52.5C21.5625 52.5 21.582 52.5 21.6211 52.5C21.6602 52.5 21.6797 52.5 21.6797 52.5C21.9141 52.5 22.1094 52.3828 22.2656 52.1484C22.4219 51.9141 22.5 51.6797 22.5 51.4453L20.625 34.5703C20.625 34.3359 20.5273 34.1406 20.332 33.9844C20.1367 33.8281 19.8828 33.75 19.5703 33.75C19.3359 33.75 19.1406 33.8672 18.9844 34.1016C18.8281 34.3359 18.75 34.5703 18.75 34.8047L20.625 51.6797C20.625 51.9141 20.7227 52.1094 20.918 52.2656C21.1133 52.4219 21.3281 52.5 21.5625 52.5ZM45.9375 52.5C46.1719 52.5 46.3867 52.4023 46.582 52.207C46.7773 52.0117 46.875 51.7969 46.875 51.5625V34.6875C46.875 34.4531 46.7773 34.2383 46.582 34.043C46.3867 33.8477 46.1719 33.75 45.9375 33.75C45.7031 33.75 45.4883 33.8477 45.293 34.043C45.0977 34.2383 45 34.4531 45 34.6875V51.5625C45 51.7969 45.0977 52.0117 45.293 52.207C45.4883 52.4023 45.7031 52.5 45.9375 52.5ZM57.0703 52.5C57.0703 52.5 57.0898 52.5 57.1289 52.5C57.168 52.5 57.1875 52.5 57.1875 52.5C57.4219 52.5 57.6367 52.4219 57.832 52.2656C58.0273 52.1094 58.125 51.9141 58.125 51.6797L60 34.8047C60 34.5703 59.9219 34.3359 59.7656 34.1016C59.6094 33.8672 59.4141 33.75 59.1797 33.75C58.8672 33.75 58.6133 33.8281 58.418 33.9844C58.2227 34.1406 58.125 34.3359 58.125 34.5703L56.25 51.4453C56.25 51.6797 56.3281 51.9141 56.4844 52.1484C56.6406 52.3828 56.8359 52.5 57.0703 52.5ZM64.6875 22.5C64.7656 22.5 64.8633 22.4805 64.9805 22.4414C65.0977 22.4023 65.1953 22.3438 65.2734 22.2656C65.5078 22.1094 65.625 21.8945 65.625 21.6211C65.625 21.3477 65.5469 21.1328 65.3906 20.9766L47.5781 0.351562C47.4219 0.117188 47.207 0 46.9336 0C46.6602 0 46.4453 0.078125 46.2891 0.234375C46.0547 0.390625 45.9375 0.605469 45.9375 0.878906C45.9375 1.15234 46.0156 1.36719 46.1719 1.52344L63.9844 22.1484C64.0625 22.3047 64.1602 22.4023 64.2773 22.4414C64.3945 22.4805 64.5312 22.5 64.6875 22.5ZM33.3984 0.234375C33.2422 0.078125 33.0273 0 32.7539 0C32.4805 0 32.2656 0.117188 32.1094 0.351562L15.2344 20.9766C15.0781 21.1328 15 21.3477 15 21.6211C15 21.8945 15.1172 22.1094 15.3516 22.2656C15.4297 22.3438 15.5273 22.4023 15.6445 22.4414C15.7617 22.4805 15.8594 22.5 15.9375 22.5C16.0938 22.5 16.2305 22.4805 16.3477 22.4414C16.4648 22.4023 16.5625 22.3047 16.6406 22.1484L33.5156 1.52344C33.6719 1.36719 33.75 1.15234 33.75 0.878906C33.75 0.605469 33.6328 0.390625 33.3984 0.234375ZM77.8125 18.75H70.3125C70.0781 18.75 69.8633 18.8477 69.668 19.043C69.4727 19.2383 69.375 19.4531 69.375 19.6875C69.375 19.9219 69.4727 20.1367 69.668 20.332C69.8633 20.5273 70.0781 20.625 70.3125 20.625H77.8125C78.0469 20.625 78.2617 20.5273 78.457 20.332C78.6523 20.1367 78.75 19.9219 78.75 19.6875C78.75 19.4531 78.6523 19.2383 78.457 19.043C78.2617 18.8477 78.0469 18.75 77.8125 18.75ZM25.3125 20.625H55.3125C55.5469 20.625 55.7617 20.5273 55.957 20.332C56.1523 20.1367 56.25 19.9219 56.25 19.6875C56.25 19.4531 56.1523 19.2383 55.957 19.043C55.7617 18.8477 55.5469 18.75 55.3125 18.75H25.3125C25.0781 18.75 24.8633 18.8477 24.668 19.043C24.4727 19.2383 24.375 19.4531 24.375 19.6875C24.375 19.9219 24.4727 20.1367 24.668 20.332C24.8633 20.5273 25.0781 20.625 25.3125 20.625ZM0.9375 20.625H10.3125C10.5469 20.625 10.7617 20.5273 10.957 20.332C11.1523 20.1367 11.25 19.9219 11.25 19.6875C11.25 19.4531 11.1523 19.2383 10.957 19.043C10.7617 18.8477 10.5469 18.75 10.3125 18.75H0.9375C0.703125 18.75 0.488281 18.8477 0.292969 19.043C0.0976562 19.2383 0 19.4531 0 19.6875C0 19.9219 0.0976562 20.1367 0.292969 20.332C0.488281 20.5273 0.703125 20.625 0.9375 20.625Z" fill="url(#paint0_linear_6_1349)"/>
    <defs>
        <linearGradient id="paint0_linear_6_1349" x1="0" y1="0" x2="84.0226" y2="51.3772" gradientUnits="userSpaceOnUse">
            <stop stop-color="#AE0EE9"/>
            <stop offset="1" stop-color="#2E19A7"/>
        </linearGradient>
    </defs>
</svg>
