<svg width="68" height="61" viewBox="0 0 68 61" fill="none" xmlns="http://www.w3.org/2000/svg">
    <path d="M1.54974 60.6401C1.78412 60.7183 2.01849 60.6792 2.25287 60.5229C2.48724 60.3667 2.64349 60.1714 2.72162 59.937C3.65912 56.3433 5.7099 53.8823 8.87396 52.5542C12.038 51.2261 14.7919 50.2886 17.1357 49.7417C17.7607 49.5854 18.3076 49.4487 18.7763 49.3315C19.2451 49.2144 19.5966 49.1167 19.831 49.0386C22.5654 47.8667 24.4599 46.4409 25.5146 44.7612C26.5693 43.0815 27.2138 41.5776 27.4482 40.2495C27.5263 40.0933 27.5263 39.937 27.4482 39.7808C27.3701 39.6245 27.2919 39.4683 27.2138 39.312C25.8076 38.1401 24.538 36.6753 23.4052 34.9175C22.2724 33.1597 21.3154 31.2651 20.5341 29.2339C20.5341 29.1558 20.5146 29.0776 20.4755 28.9995C20.4365 28.9214 20.4169 28.8823 20.4169 28.8823C19.4013 27.7886 18.6201 26.7144 18.0732 25.6597C17.5263 24.605 17.2529 23.6089 17.2529 22.6714C17.2529 22.1245 17.3701 21.6753 17.6044 21.3237C17.8388 20.9722 18.1513 20.6792 18.5419 20.4448C18.6982 20.3667 18.8154 20.2495 18.8935 20.0933C18.9716 19.937 19.0107 19.7808 19.0107 19.6245C19.2451 14.8589 20.8661 10.8159 23.874 7.49561C26.8818 4.17529 30.456 2.51514 34.5966 2.51514C34.5966 2.51514 34.6357 2.51514 34.7138 2.51514C34.7919 2.51514 34.831 2.51514 34.831 2.51514C38.9716 2.59326 42.5263 4.31201 45.4951 7.67139C48.4638 11.0308 50.0263 15.1323 50.1826 19.9761C50.1826 20.1323 50.2021 20.269 50.2411 20.3862C50.2802 20.5034 50.3779 20.6011 50.5341 20.6792C50.8466 20.9136 51.0615 21.2065 51.1786 21.5581C51.2958 21.9097 51.3544 22.2808 51.3544 22.6714C51.3544 23.4526 51.1591 24.2925 50.7685 25.1909C50.3779 26.0894 49.831 26.9683 49.1279 27.8276C49.0497 27.9058 49.0107 27.9644 49.0107 28.0034C49.0107 28.0425 49.0107 28.1011 49.0107 28.1792C48.2294 30.5229 47.1943 32.7104 45.9052 34.7417C44.6161 36.7729 43.1904 38.4136 41.6279 39.6636C41.4716 39.8198 41.3544 39.9761 41.2763 40.1323C41.1982 40.2886 41.1982 40.4448 41.2763 40.6011C41.5107 41.9292 42.1552 43.4331 43.2099 45.1128C44.2646 46.7925 46.1591 48.2183 48.8935 49.3901C49.206 49.5464 49.5966 49.6831 50.0654 49.8003C50.5341 49.9175 51.081 50.0151 51.706 50.0933C54.0497 50.6401 56.7841 51.519 59.9091 52.73C63.0341 53.9409 65.0654 56.3433 66.0029 59.937C66.081 60.1714 66.1982 60.3472 66.3544 60.4644C66.5107 60.5815 66.706 60.6401 66.9404 60.6401C66.9404 60.6401 66.9599 60.6401 66.999 60.6401C67.038 60.6401 67.0966 60.6401 67.1747 60.6401C67.4091 60.562 67.6044 60.4058 67.7607 60.1714C67.9169 59.937 67.956 59.7026 67.8779 59.4683C66.7841 55.3276 64.4794 52.5542 60.9638 51.1479C57.4482 49.7417 54.4794 48.8042 52.0576 48.3354C51.5107 48.1792 51.0224 48.0425 50.5927 47.9253C50.163 47.8081 49.831 47.7104 49.5966 47.6323C47.8779 46.9292 46.4716 45.9917 45.3779 44.8198C44.2841 43.6479 43.5419 42.3198 43.1513 40.8354C44.7919 39.4292 46.2568 37.6909 47.5458 35.6206C48.8349 33.5503 49.8701 31.3042 50.6513 28.8823C51.5107 27.7886 52.1552 26.7144 52.5849 25.6597C53.0146 24.605 53.2294 23.6089 53.2294 22.6714C53.2294 22.0464 53.1318 21.48 52.9365 20.9722C52.7411 20.4644 52.4482 19.9761 52.0576 19.5073C51.8232 14.2729 50.0458 9.83936 46.7255 6.20654C43.4052 2.57373 39.4404 0.718266 34.831 0.640141H34.4794C29.9482 0.640141 26.0224 2.41748 22.7021 5.97217C19.3818 9.52686 17.5263 13.8823 17.1357 19.0386C16.5888 19.5073 16.1591 20.0347 15.8466 20.6206C15.5341 21.2065 15.3779 21.8901 15.3779 22.6714C15.3779 23.7651 15.6904 24.9565 16.3154 26.2456C16.9404 27.5347 17.7997 28.7651 18.8935 29.937C19.5966 32.0464 20.5341 33.9995 21.706 35.7964C22.8779 37.5933 24.1669 39.1167 25.5732 40.3667C25.1826 41.9292 24.4404 43.2769 23.3466 44.4097C22.2529 45.5425 20.8466 46.4995 19.1279 47.2808C18.8935 47.3589 18.5615 47.4565 18.1318 47.5737C17.7021 47.6909 17.2529 47.8276 16.7841 47.9839C14.3622 48.5308 11.3935 49.5464 7.87787 51.0308C4.36224 52.5151 2.01849 55.3276 0.846619 59.4683C0.768494 59.7026 0.807556 59.937 0.963806 60.1714C1.12006 60.4058 1.31537 60.562 1.54974 60.6401Z" fill="url(#paint0_linear_6_1326)"/>
    <defs>
        <linearGradient id="paint0_linear_6_1326" x1="0.807556" y1="0.640141" x2="78.1961" y2="40.9397" gradientUnits="userSpaceOnUse">
            <stop stop-color="#AE0EE9"/>
            <stop offset="1" stop-color="#2E19A7"/>
        </linearGradient>
    </defs>
</svg>
