<svg width="67" height="61" viewBox="0 0 67 61" fill="none" xmlns="http://www.w3.org/2000/svg">
    <path d="M38.3697 8.02295C38.3697 6.14795 37.608 4.44873 36.0845 2.92529C34.5611 1.40186 32.1588 0.640137 28.8775 0.640137C25.9869 0.640137 23.6627 1.3042 21.9048 2.63232C20.147 3.96045 19.2681 5.75732 19.2681 8.02295C19.2681 9.27295 19.4634 10.23 19.8541 10.894C20.2447 11.5581 20.6353 12.0854 21.0259 12.4761C21.1822 12.6323 21.2994 12.769 21.3775 12.8862C21.4556 13.0034 21.4947 13.1011 21.4947 13.1792C21.4947 13.3354 21.4556 13.4722 21.3775 13.5894C21.2994 13.7065 20.9869 13.7651 20.44 13.7651H8.95563C6.76813 13.7651 4.85406 14.5073 3.21344 15.9917C1.57281 17.4761 0.752502 19.2339 0.752502 21.2651V28.2964C0.752502 29.1558 0.986877 29.8394 1.45563 30.3472C1.92438 30.855 2.54938 31.1089 3.33063 31.1089C3.79938 31.1089 4.20953 31.0112 4.5611 30.8159C4.91266 30.6206 5.24469 30.4058 5.55719 30.1714C5.94781 29.8589 6.41656 29.5464 6.96344 29.2339C7.51031 28.9214 8.2525 28.7651 9.19 28.7651C10.7525 28.7651 12.2369 29.4097 13.6431 30.6987C15.0494 31.9878 15.7525 33.8433 15.7525 36.2651C15.7525 38.7651 15.0494 40.7769 13.6431 42.3003C12.2369 43.8237 10.7525 44.5854 9.19 44.5854C8.33063 44.5854 7.6275 44.4292 7.08063 44.1167C6.53375 43.8042 6.02594 43.4526 5.55719 43.062C5.24469 42.8276 4.91266 42.5933 4.5611 42.3589C4.20953 42.1245 3.79938 42.0073 3.33063 42.0073C2.54938 42.0073 1.92438 42.2612 1.45563 42.769C0.986877 43.2769 0.752502 43.9995 0.752502 44.937V52.6714C0.752502 54.7026 1.59235 56.5386 3.27203 58.1792C4.95172 59.8198 6.84625 60.6401 8.95563 60.6401H20.5572C21.4166 60.6401 22.1002 60.3862 22.608 59.8784C23.1158 59.3706 23.3697 58.7651 23.3697 58.062C23.3697 57.5933 23.272 57.2026 23.0767 56.8901C22.8814 56.5776 22.6666 56.2651 22.4322 55.9526C22.1197 55.6401 21.8267 55.269 21.5533 54.8394C21.2798 54.4097 21.1431 53.7261 21.1431 52.7886C21.1431 51.1479 21.8463 49.8198 23.2525 48.8042C24.6588 47.7886 26.4947 47.2808 28.7603 47.2808C31.1041 47.2808 32.9791 47.7886 34.3853 48.8042C35.7916 49.8198 36.4947 51.1479 36.4947 52.7886C36.4947 53.7261 36.358 54.4097 36.0845 54.8394C35.8111 55.269 35.5181 55.6401 35.2056 55.9526C34.9713 56.2651 34.7564 56.5776 34.5611 56.8901C34.3658 57.2026 34.2681 57.5933 34.2681 58.062C34.2681 58.8433 34.522 59.4683 35.0298 59.937C35.5377 60.4058 36.2213 60.6401 37.0806 60.6401H44.4634C46.4947 60.6401 48.1548 59.937 49.4439 58.5308C50.733 57.1245 51.3775 55.2886 51.3775 53.0229V44.2339C51.3775 44.1558 51.5142 43.9604 51.7877 43.6479C52.0611 43.3354 52.4322 43.1792 52.9009 43.1792C52.9791 43.1792 53.0767 43.2183 53.1939 43.2964C53.3111 43.3745 53.4478 43.4917 53.6041 43.6479C53.9947 44.0386 54.522 44.4292 55.1861 44.8198C55.8502 45.2104 56.8463 45.4058 58.1744 45.4058C60.2056 45.4058 62.0806 44.6245 63.7994 43.062C65.5181 41.4995 66.3775 39.2339 66.3775 36.2651C66.3775 33.062 65.5963 30.6987 64.0338 29.1753C62.4713 27.6519 60.7525 26.8901 58.8775 26.8901C57.6275 26.8901 56.6119 27.105 55.8306 27.5347C55.0494 27.9644 54.4244 28.3745 53.9556 28.7651C53.7213 28.9214 53.5064 29.0776 53.3111 29.2339C53.1158 29.3901 52.9791 29.4683 52.9009 29.4683C52.4322 29.4683 52.0611 29.312 51.7877 28.9995C51.5142 28.687 51.3775 28.4917 51.3775 28.4136C51.3775 28.4136 51.3775 28.394 51.3775 28.355C51.3775 28.3159 51.3775 28.2964 51.3775 28.2964V21.6167C51.3775 19.3511 50.733 17.4761 49.4439 15.9917C48.1548 14.5073 46.4947 13.7651 44.4634 13.7651H37.1978C37.1978 13.7651 37.1783 13.7651 37.1392 13.7651C37.1002 13.7651 37.0806 13.7651 37.0806 13.7651C36.6119 13.7651 36.3384 13.7065 36.2603 13.5894C36.1822 13.4722 36.1431 13.3354 36.1431 13.1792C36.1431 13.1011 36.1822 13.0034 36.2603 12.8862C36.3384 12.769 36.4556 12.6323 36.6119 12.4761C36.9244 12.0854 37.2955 11.5581 37.7252 10.894C38.1548 10.23 38.3697 9.27295 38.3697 8.02295ZM35.2056 11.187C34.9713 11.4995 34.7564 11.812 34.5611 12.1245C34.3658 12.437 34.2681 12.8276 34.2681 13.2964C34.2681 13.7651 34.4439 14.2534 34.7955 14.7612C35.147 15.269 35.8697 15.562 36.9634 15.6401C36.9634 15.6401 36.983 15.6401 37.022 15.6401C37.0611 15.6401 37.0806 15.6401 37.0806 15.6401H44.4634C46.1041 15.6401 47.3541 16.2651 48.2134 17.5151C49.0728 18.7651 49.5025 20.1323 49.5025 21.6167V28.4136C49.5025 28.4917 49.5025 28.5308 49.5025 28.5308C49.5025 28.5308 49.5025 28.5698 49.5025 28.6479C49.5806 29.1948 49.9322 29.7808 50.5572 30.4058C51.1822 31.0308 51.9634 31.3433 52.9009 31.3433C53.2916 31.3433 53.6627 31.2261 54.0142 30.9917C54.3658 30.7573 54.7369 30.5229 55.1275 30.2886C55.5963 29.8979 56.1041 29.5464 56.6509 29.2339C57.1978 28.9214 57.94 28.7651 58.8775 28.7651C60.5963 28.7651 61.9634 29.4487 62.9791 30.8159C63.9947 32.1831 64.5025 33.9995 64.5025 36.2651C64.5025 38.7651 63.8189 40.6011 62.4517 41.7729C61.0845 42.9448 59.6588 43.5308 58.1744 43.5308C57.2369 43.5308 56.5338 43.394 56.065 43.1206C55.5963 42.8472 55.2056 42.5542 54.8931 42.2417C54.6588 42.0073 54.3853 41.7925 54.0728 41.5972C53.7603 41.4019 53.3697 41.3042 52.9009 41.3042C51.9634 41.3042 51.1822 41.6167 50.5572 42.2417C49.9322 42.8667 49.5806 43.4526 49.5025 43.9995C49.5025 43.9995 49.5025 44.019 49.5025 44.0581C49.5025 44.0972 49.5025 44.1558 49.5025 44.2339V53.0229C49.5025 54.4292 49.0923 55.7378 48.272 56.9487C47.4517 58.1597 46.1822 58.7651 44.4634 58.7651H37.1978C36.6509 58.7651 36.3384 58.6675 36.2603 58.4722C36.1822 58.2769 36.1431 58.1401 36.1431 58.062C36.1431 57.9058 36.1822 57.7886 36.2603 57.7104C36.3384 57.6323 36.4556 57.4761 36.6119 57.2417C36.9244 56.8511 37.2955 56.3237 37.7252 55.6597C38.1548 54.9956 38.3697 54.0386 38.3697 52.7886C38.3697 50.9136 37.5884 49.2144 36.0259 47.6909C34.4634 46.1675 32.0416 45.4058 28.7603 45.4058C25.9478 45.4058 23.6627 46.0894 21.9048 47.4565C20.147 48.8237 19.2681 50.6011 19.2681 52.7886C19.2681 54.0386 19.4634 54.9956 19.8541 55.6597C20.2447 56.3237 20.6353 56.8511 21.0259 57.2417C21.1822 57.4761 21.2994 57.6323 21.3775 57.7104C21.4556 57.7886 21.4947 57.9058 21.4947 58.062C21.4947 58.1401 21.4556 58.2769 21.3775 58.4722C21.2994 58.6675 20.9869 58.7651 20.44 58.7651H8.95563C7.39313 58.7651 5.94781 58.1206 4.61969 56.8315C3.29156 55.5425 2.6275 54.1558 2.6275 52.6714V44.937C2.6275 44.4683 2.72516 44.1753 2.92047 44.0581C3.11578 43.9409 3.2525 43.8823 3.33063 43.8823C3.48688 43.8823 3.64313 43.9604 3.79938 44.1167C3.95563 44.2729 4.15094 44.4292 4.38531 44.5854C4.85406 44.9761 5.45953 45.3862 6.20172 45.8159C6.94391 46.2456 7.97906 46.4604 9.30719 46.4604C11.2603 46.4604 13.1353 45.5229 14.9322 43.6479C16.7291 41.7729 17.6275 39.312 17.6275 36.2651C17.6275 33.2183 16.7291 30.894 14.9322 29.2925C13.1353 27.6909 11.2213 26.8901 9.19 26.8901C7.94 26.8901 6.94391 27.105 6.20172 27.5347C5.45953 27.9644 4.85406 28.3354 4.38531 28.6479C4.15094 28.8042 3.95563 28.9409 3.79938 29.0581C3.64313 29.1753 3.48688 29.2339 3.33063 29.2339C3.2525 29.2339 3.11578 29.1948 2.92047 29.1167C2.72516 29.0386 2.6275 28.7261 2.6275 28.1792V21.2651C2.6275 19.6245 3.3111 18.2769 4.67828 17.2222C6.04547 16.1675 7.47125 15.6401 8.95563 15.6401H20.44C20.44 15.6401 20.4595 15.6401 20.4986 15.6401C20.5377 15.6401 20.5572 15.6401 20.5572 15.6401C21.7291 15.562 22.4908 15.269 22.8423 14.7612C23.1939 14.2534 23.3697 13.7261 23.3697 13.1792C23.3697 12.7886 23.272 12.437 23.0767 12.1245C22.8814 11.812 22.6666 11.4995 22.4322 11.187C22.1197 10.8745 21.8267 10.4839 21.5533 10.0151C21.2798 9.54639 21.1431 8.88232 21.1431 8.02295C21.1431 6.38232 21.8463 5.0542 23.2525 4.03857C24.6588 3.02295 26.5338 2.51514 28.8775 2.51514C31.1431 2.51514 32.9791 3.00342 34.3853 3.97998C35.7916 4.95654 36.4947 6.3042 36.4947 8.02295C36.4947 8.88232 36.358 9.54639 36.0845 10.0151C35.8111 10.4839 35.5181 10.8745 35.2056 11.187Z" fill="url(#paint0_linear_6_1356)"/>
    <defs>
        <linearGradient id="paint0_linear_6_1356" x1="0.752502" y1="0.640137" x2="77.1218" y2="39.5546" gradientUnits="userSpaceOnUse">
            <stop stop-color="#AE0EE9"/>
            <stop offset="1" stop-color="#2E19A7"/>
        </linearGradient>
    </defs>
</svg>
