<svg width="73" height="60" viewBox="0 0 73 60" fill="none" xmlns="http://www.w3.org/2000/svg">
    <g clip-path="url(#clip0_6_1333)">
        <path d="M61.8775 14.0625C62.1119 14.0625 62.3267 13.9648 62.522 13.7695C62.7173 13.5742 62.815 13.3594 62.815 13.125V9.96094C62.815 9.17969 62.522 8.47656 61.9361 7.85156C61.3502 7.22656 60.6275 6.91406 59.7681 6.91406H54.7291L53.5572 3.51562C53.4791 3.28125 53.3228 3.10547 53.0884 2.98828C52.8541 2.87109 52.6197 2.85156 52.3853 2.92969L25.0806 11.25C24.8463 11.3281 24.6705 11.4844 24.5533 11.7188C24.4361 11.9531 24.4166 12.1875 24.4947 12.4219C24.5728 12.5781 24.69 12.7344 24.8463 12.8906C25.0025 13.0469 25.1978 13.125 25.4322 13.125C25.4322 13.125 25.4517 13.1055 25.4908 13.0664C25.5298 13.0273 25.5884 13.0078 25.6666 13.0078L52.0338 5.03906L54.6119 12.4219C54.69 12.6562 54.8463 12.832 55.0806 12.9492C55.315 13.0664 55.5494 13.0859 55.7838 13.0078C56.0181 12.9297 56.1939 12.7734 56.3111 12.5391C56.4283 12.3047 56.4478 12.0703 56.3697 11.8359L55.315 8.78906H59.7681C60.0806 8.78906 60.3541 8.90625 60.5884 9.14062C60.8228 9.375 60.94 9.64844 60.94 9.96094V13.125C60.94 13.3594 61.0377 13.5742 61.233 13.7695C61.4283 13.9648 61.6431 14.0625 61.8775 14.0625ZM69.3775 28.125C69.1431 28.125 68.9283 28.2227 68.733 28.418C68.5377 28.6133 68.44 28.8281 68.44 29.0625C68.44 29.2969 68.5377 29.5117 68.733 29.707C68.9283 29.9023 69.1431 30 69.3775 30C69.69 30 69.9244 30.0781 70.0806 30.2344C70.2369 30.3906 70.315 30.625 70.315 30.9375V42.1875C70.315 42.5 70.2369 42.7344 70.0806 42.8906C69.9244 43.0469 69.69 43.125 69.3775 43.125H54.3775C54.065 43.125 53.8306 43.0469 53.6744 42.8906C53.5181 42.7344 53.44 42.5 53.44 42.1875V32.8125C53.44 32.5 53.5181 32.2656 53.6744 32.1094C53.8306 31.9531 54.065 31.875 54.3775 31.875H65.6275C65.8619 31.875 66.0767 31.7773 66.272 31.582C66.4673 31.3867 66.565 31.1719 66.565 30.9375V19.6875C66.565 18.8281 66.3111 18.1445 65.8033 17.6367C65.2955 17.1289 64.6119 16.875 63.7525 16.875H6.565C5.39313 16.875 4.47516 16.543 3.8111 15.8789C3.14703 15.2148 2.815 14.2969 2.815 13.125C2.815 11.9531 3.14703 11.0352 3.8111 10.3711C4.47516 9.70703 5.39313 9.375 6.565 9.375H16.0572L10.4322 11.25C10.1978 11.3281 10.022 11.4844 9.90485 11.7188C9.78766 11.9531 9.76813 12.1875 9.84625 12.4219C9.92438 12.6562 10.0416 12.832 10.1978 12.9492C10.3541 13.0664 10.5103 13.125 10.6666 13.125C10.7447 13.125 10.8033 13.1055 10.8423 13.0664C10.8814 13.0273 10.94 13.0078 11.0181 13.0078L45.0025 1.875C45.2369 1.79688 45.4127 1.64062 45.5298 1.40625C45.647 1.17188 45.6666 0.898438 45.5884 0.585938C45.5103 0.351562 45.3541 0.175781 45.1197 0.0585938C44.8853 -0.0585938 44.6509 -0.078125 44.4166 0L21.6822 7.5C21.6822 7.5 21.6627 7.5 21.6236 7.5C21.5845 7.5 21.565 7.5 21.565 7.5H6.565C4.84625 7.5 3.47906 8.00781 2.46344 9.02344C1.44781 10.0391 0.940002 11.4062 0.940002 13.125V54.375C0.940002 56.0938 1.44781 57.4609 2.46344 58.4766C3.47906 59.4922 4.84625 60 6.565 60H63.7525C64.6119 60 65.2955 59.7461 65.8033 59.2383C66.3111 58.7305 66.565 58.0469 66.565 57.1875V47.8125C66.565 47.5781 66.4673 47.3633 66.272 47.168C66.0767 46.9727 65.8619 46.875 65.6275 46.875C65.3931 46.875 65.1783 46.9727 64.983 47.168C64.7877 47.3633 64.69 47.5781 64.69 47.8125V57.1875C64.69 57.5 64.6119 57.7344 64.4556 57.8906C64.2994 58.0469 64.065 58.125 63.7525 58.125H6.565C5.39313 58.125 4.47516 57.793 3.8111 57.1289C3.14703 56.4648 2.815 55.5469 2.815 54.375V17.4609C3.28375 17.8516 3.83063 18.1641 4.45563 18.3984C5.08063 18.6328 5.78375 18.75 6.565 18.75H63.7525C64.065 18.75 64.2994 18.8281 64.4556 18.9844C64.6119 19.1406 64.69 19.375 64.69 19.6875V30H54.3775C53.5181 30 52.8345 30.2539 52.3267 30.7617C51.8189 31.2695 51.565 31.9531 51.565 32.8125V42.1875C51.565 43.0469 51.8189 43.7305 52.3267 44.2383C52.8345 44.7461 53.5181 45 54.3775 45H69.3775C70.2369 45 70.9205 44.7461 71.4283 44.2383C71.9361 43.7305 72.19 43.0469 72.19 42.1875V30.9375C72.19 30.0781 71.9361 29.3945 71.4283 28.8867C70.9205 28.3789 70.2369 28.125 69.3775 28.125ZM59.065 37.5C59.065 38.0469 59.2408 38.4961 59.5923 38.8477C59.9439 39.1992 60.3931 39.375 60.94 39.375C61.4869 39.375 61.9361 39.1992 62.2877 38.8477C62.6392 38.4961 62.815 38.0469 62.815 37.5C62.815 36.9531 62.6392 36.5039 62.2877 36.1523C61.9361 35.8008 61.4869 35.625 60.94 35.625C60.3931 35.625 59.9439 35.8008 59.5923 36.1523C59.2408 36.5039 59.065 36.9531 59.065 37.5Z" fill="url(#paint0_linear_6_1333)"/>
    </g>
    <defs>
        <linearGradient id="paint0_linear_6_1333" x1="0.940002" y1="-0.0468788" x2="80.9376" y2="44.1759" gradientUnits="userSpaceOnUse">
            <stop stop-color="#AE0EE9"/>
            <stop offset="1" stop-color="#2E19A7"/>
        </linearGradient>
        <clipPath id="clip0_6_1333">
            <rect width="71.25" height="60" fill="white" transform="matrix(1 0 0 -1 0.940002 60)"/>
        </clipPath>
    </defs>
</svg>
